<svg display="none" xmlns="http://www.w3.org/2000/svg">
    <symbol id="fullscreen" viewBox="0 0 24 24">
        <path d="M21.6931 2.71291C21.6565 2.62445 21.6022 2.54158 21.5303 2.46967C21.3839 2.32322 21.1919 2.25 21 2.25H17C16.5858 2.25 16.25 2.58579 16.25 3C16.25 3.41421 16.5858 3.75 17 3.75H19.1893L14.4697 8.46967C14.1768 8.76256 14.1768 9.23744 14.4697 9.53033C14.7626 9.82322 15.2374 9.82322 15.5303 9.53033L20.25 4.81066V7C20.25 7.41421 20.5858 7.75 21 7.75C21.4142 7.75 21.75 7.41421 21.75 7V3C21.75 2.89831 21.7298 2.80134 21.6931 2.71291Z" />
        <path d="M3 16.25C3.41421 16.25 3.75 16.5858 3.75 17V19.1893L8.46967 14.4697C8.76256 14.1768 9.23744 14.1768 9.53033 14.4697C9.82322 14.7626 9.82322 15.2374 9.53033 15.5303L4.81066 20.25H7C7.41421 20.25 7.75 20.5858 7.75 21C7.75 21.4142 7.41421 21.75 7 21.75H3C2.80806 21.75 2.61612 21.6768 2.46967 21.5303C2.39776 21.4584 2.34351 21.3755 2.30691 21.2871C2.27024 21.1987 2.25 21.1017 2.25 21V17C2.25 16.5858 2.58579 16.25 3 16.25Z" />
        <path d="M6 4.75C5.30921 4.75 4.75 5.30921 4.75 6V11C4.75 11.4142 4.41421 11.75 4 11.75C3.58579 11.75 3.25 11.4142 3.25 11V6C3.25 4.48079 4.48079 3.25 6 3.25H11C11.4142 3.25 11.75 3.58579 11.75 4C11.75 4.41421 11.4142 4.75 11 4.75H6Z" />
        <path d="M20.75 13C20.75 12.5858 20.4142 12.25 20 12.25C19.5858 12.25 19.25 12.5858 19.25 13V18C19.25 18.6908 18.6908 19.25 18 19.25H12C11.5858 19.25 11.25 19.5858 11.25 20C11.25 20.4142 11.5858 20.75 12 20.75H18C19.5192 20.75 20.75 19.5192 20.75 18V13Z" />
    </symbol>
</svg>